<svg xmlns="http://www.w3.org/2000/svg" width="28.022" height="28.02" viewBox="0 0 28.022 28.02">
  <g id="_1" data-name="1" transform="translate(0.248 0.519)">
    <path id="Path_31" data-name="Path 31" d="M.372,2.55,2.171,5.7a.449.449,0,0,0,.281.213l1.679.42,5.758,5.758.636-.636L4.677,5.606a.449.449,0,0,0-.209-.118l-1.613-.4L1.323,2.4,2.637,1.087,5.32,2.621l.4,1.613a.449.449,0,0,0,.118.209l5.848,5.848.636-.636L6.569,3.9,6.15,2.219a.451.451,0,0,0-.213-.282L2.788.138a.45.45,0,0,0-.54.072l-1.8,1.8a.45.45,0,0,0-.077.541Zm0,0" transform="translate(-0.039 -0.076)" fill="#633a82" stroke="rgba(0,0,0,0)" stroke-miterlimit="10" stroke-width="1"/>
    <path id="Path_32" data-name="Path 32" d="M184.513,174.355l-9.9,9.9-.636-.636,9.9-9.9Zm0,0" transform="translate(-165.479 -165.49)" fill="#633a82" stroke="rgba(0,0,0,0)" stroke-miterlimit="10" stroke-width="1"/>
    <path id="Path_33" data-name="Path 33" d="M52.637,399.054a.45.45,0,0,0-.386-.218h-2.7a.449.449,0,0,0-.385.218L47.817,401.3a.45.45,0,0,0,0,.463l1.349,2.249a.45.45,0,0,0,.385.218h2.7a.45.45,0,0,0,.386-.218l1.349-2.249a.45.45,0,0,0,0-.463Zm-.64,4.28h-2.19l-1.08-1.8,1.08-1.8H52l1.08,1.8Zm0,0" transform="translate(-45.23 -379.943)" fill="#633a82" stroke="rgba(0,0,0,0)" stroke-miterlimit="10" stroke-width="1"/>
    <path id="Path_34" data-name="Path 34" d="M21.864,10.8a5.379,5.379,0,0,0,5.232-6.7.45.45,0,0,0-.754-.21l-2.8,2.8-2.222-.74L20.58,3.721l2.8-2.8a.45.45,0,0,0-.211-.755,5.381,5.381,0,0,0-6.7,5.233,5.28,5.28,0,0,0,.109,1.054L6.725,16.3a5.307,5.307,0,0,0-1.054-.109,5.4,5.4,0,1,0,5.4,5.4,5.293,5.293,0,0,0-.109-1.054l2.358-2.358,1.031,1.031a.45.45,0,0,0,.636,0l.225-.225a.5.5,0,0,1,.714.713h0l-.225.225a.45.45,0,0,0,0,.636l5.366,5.366a3.63,3.63,0,1,0,5.157-5.111l-.023-.023-5.366-5.366a.45.45,0,0,0-.636,0l-.225.225a.5.5,0,0,1-.714-.712h0l.225-.225a.45.45,0,0,0,0-.636l-1.031-1.031,2.358-2.358a5.293,5.293,0,0,0,1.054.109ZM23.632,26.09a2.733,2.733,0,0,1-.957-.174L26.188,22.4a2.728,2.728,0,0,1-2.556,3.688ZM18.536,14.4a1.4,1.4,0,0,0,1.979,1.976l5.048,5.052c.055.055.106.113.156.172l-3.846,3.846c-.059-.049-.117-.1-.172-.156l-5.052-5.052a1.4,1.4,0,0,0-1.979-1.977l-.72-.72,3.866-3.86Zm1.816-4.524-10.2,10.2a.45.45,0,0,0-.119.427,4.528,4.528,0,1,1-3.271-3.271.454.454,0,0,0,.427-.119l10.2-10.2a.45.45,0,0,0,.118-.427A4.476,4.476,0,0,1,22.12.908L19.747,3.281a.449.449,0,0,0-.109.46l.9,2.7a.45.45,0,0,0,.285.284l2.7.9a.45.45,0,0,0,.46-.108l2.373-2.373c.005.086.008.171.008.255a4.475,4.475,0,0,1-5.585,4.358.45.45,0,0,0-.427.118h0Zm0,0" transform="translate(0)" fill="#633a82" stroke="rgba(0,0,0,0)" stroke-miterlimit="10" stroke-width="1"/>
    <path id="Path_35" data-name="Path 35" d="M388.024,387.123l-.636.636-4.5-4.5.636-.636Zm0,0" transform="translate(-364.492 -364.5)" fill="#633a82" stroke="rgba(0,0,0,0)" stroke-miterlimit="10" stroke-width="1"/>
  </g>
</svg>
