<svg xmlns="http://www.w3.org/2000/svg" width="28" height="27.999" viewBox="0 0 28 27.999">
  <g id="_3" data-name="3" transform="translate(0 -0.005)">
    <g id="Group_45" data-name="Group 45" transform="translate(2.953 0.005)">
      <g id="Group_44" data-name="Group 44">
        <path id="Path_36" data-name="Path 36" d="M57.82,3.922h-1c.15-1.108.762-1.164,1.044-1.189a.547.547,0,0,0,.5-.545V.552a.547.547,0,0,0-.578-.546C56.061.1,54,.976,54,4.582V7.428a.863.863,0,0,0,.862.862H57.82a.862.862,0,0,0,.861-.862V4.784A.863.863,0,0,0,57.82,3.922ZM57.588,7.2H55.094V4.582c0-2.516,1.119-3.219,2.179-3.417v.575c-.732.223-1.575.881-1.575,2.73a.547.547,0,0,0,.547.547h1.343Z" transform="translate(-54 -0.005)" fill="#633a82"/>
      </g>
    </g>
    <g id="Group_47" data-name="Group 47" transform="translate(8.544 0.005)">
      <g id="Group_46" data-name="Group 46">
        <path id="Path_37" data-name="Path 37" d="M160.054,3.922h-1c.15-1.108.762-1.164,1.044-1.189a.547.547,0,0,0,.5-.545V.552a.547.547,0,0,0-.578-.546c-1.729.1-3.789.97-3.789,4.576V7.428a.863.863,0,0,0,.862.862h2.959a.863.863,0,0,0,.862-.862V4.784A.862.862,0,0,0,160.054,3.922ZM159.822,7.2h-2.494V4.582c0-2.516,1.119-3.219,2.179-3.417v.575c-.732.223-1.575.881-1.575,2.73a.547.547,0,0,0,.547.547h1.343Z" transform="translate(-156.234 -0.005)" fill="#633a82"/>
      </g>
    </g>
    <g id="Group_49" data-name="Group 49" transform="translate(14.656 4.263)">
      <g id="Group_48" data-name="Group 48">
        <path id="Path_38" data-name="Path 38" d="M268.934,78.025a.547.547,0,1,0,.16.387A.551.551,0,0,0,268.934,78.025Z" transform="translate(-268 -77.865)" fill="#633a82"/>
      </g>
    </g>
    <g id="Group_51" data-name="Group 51" transform="translate(0 4.263)">
      <g id="Group_50" data-name="Group 50">
        <path id="Path_39" data-name="Path 39" d="M18.28,77.864h-.689a.547.547,0,1,0,0,1.094h.689a8.627,8.627,0,0,1,1.78,17.068.547.547,0,0,0-.435.535v3.178L16.257,96.37a.547.547,0,0,0-.387-.16H9.72A8.628,8.628,0,0,1,2.176,83.4a.547.547,0,0,0-.956-.532A9.722,9.722,0,0,0,9.72,97.3h5.924l4.142,4.142a.547.547,0,0,0,.934-.387V96.994a9.721,9.721,0,0,0-2.439-19.13Z" transform="translate(0 -77.864)" fill="#633a82"/>
      </g>
    </g>
    <g id="Group_53" data-name="Group 53" transform="translate(6.723 9.711)">
      <g id="Group_52" data-name="Group 52">
        <path id="Path_40" data-name="Path 40" d="M136.944,177.492h-13.46a.547.547,0,0,0,0,1.094h13.46a.547.547,0,1,0,0-1.094Z" transform="translate(-122.937 -177.492)" fill="#633a82"/>
      </g>
    </g>
    <g id="Group_55" data-name="Group 55" transform="translate(6.723 12.628)">
      <g id="Group_54" data-name="Group 54">
        <path id="Path_41" data-name="Path 41" d="M136.944,230.825h-13.46a.547.547,0,0,0,0,1.094h13.46a.547.547,0,1,0,0-1.094Z" transform="translate(-122.937 -230.825)" fill="#633a82"/>
      </g>
    </g>
    <g id="Group_57" data-name="Group 57" transform="translate(6.723 15.544)">
      <g id="Group_56" data-name="Group 56">
        <path id="Path_42" data-name="Path 42" d="M136.944,284.158h-13.46a.547.547,0,1,0,0,1.094h13.46a.547.547,0,1,0,0-1.094Z" transform="translate(-122.937 -284.158)" fill="#633a82"/>
      </g>
    </g>
    <g id="Group_59" data-name="Group 59" transform="translate(13.009 18.461)">
      <g id="Group_58" data-name="Group 58">
        <path id="Path_43" data-name="Path 43" d="M245.592,337.492h-7.175a.547.547,0,1,0,0,1.094h7.175a.547.547,0,0,0,0-1.094Z" transform="translate(-237.871 -337.492)" fill="#633a82"/>
      </g>
    </g>
    <g id="Group_61" data-name="Group 61" transform="translate(9.923 18.461)">
      <g id="Group_60" data-name="Group 60">
        <path id="Path_44" data-name="Path 44" d="M182,337.491h-.009a.547.547,0,0,0,0,1.094H182a.547.547,0,0,0,0-1.094Z" transform="translate(-181.446 -337.491)" fill="#633a82"/>
      </g>
    </g>
  </g>
</svg>
