<svg xmlns="http://www.w3.org/2000/svg" xmlns:xlink="http://www.w3.org/1999/xlink" width="28" height="28" viewBox="0 0 28 28"><defs><clipPath id="a"><rect width="28" height="28" transform="translate(174 212)" fill="#f1fcfc" stroke="#707070" stroke-width="1"/></clipPath></defs><g transform="translate(-174 -212)" clip-path="url(#a)"><g transform="translate(174 212)"><path d="M27.552,7.113l-.917-.924a1.535,1.535,0,0,0-2.166,0L14.006,16.653,3.532,6.178a1.536,1.536,0,0,0-2.166,0L.448,7.1a1.533,1.533,0,0,0,0,2.166L12.919,21.778a1.566,1.566,0,0,0,1.086.491h0a1.565,1.565,0,0,0,1.083-.491L27.552,9.3A1.547,1.547,0,0,0,28,8.2,1.532,1.532,0,0,0,27.552,7.113Z" fill="#f1fcfc"/></g></g></svg>