<svg xmlns="http://www.w3.org/2000/svg" xmlns:xlink="http://www.w3.org/1999/xlink" width="31" height="31" viewBox="0 0 31 31"><defs><clipPath id="a"><rect width="31" height="31" transform="translate(101.5 1443.5)" fill="#f1fcfc"/></clipPath></defs><g transform="translate(-101.5 -1443.5)" clip-path="url(#a)"><g transform="translate(101.001 1442.999)"><path d="M16.005,7.784a8.211,8.211,0,1,0,8.211,8.211,8.21,8.21,0,0,0-8.211-8.211Zm0,13.54a5.329,5.329,0,1,1,5.329-5.329A5.328,5.328,0,0,1,16.005,21.324Z" fill="#f1fcfc"/><path d="M22.6.1C19.653-.036,12.361-.029,9.415.1A9.562,9.562,0,0,0,2.7,2.689C-.377,5.767.016,9.913.016,15.994.016,22.218-.331,26.269,2.7,29.3c3.089,3.088,7.3,2.684,13.305,2.684,6.165,0,8.293,0,10.473-.84,2.964-1.151,5.2-3.8,5.42-8.559.139-2.945.131-10.236,0-13.182C31.634,3.785,28.619.379,22.6.1Zm4.66,27.162C25.24,29.281,22.441,29.1,15.966,29.1c-6.667,0-9.34.1-11.29-1.857-2.247-2.236-1.84-5.827-1.84-11.27,0-7.367-.756-12.672,6.637-13.05,1.7-.06,2.2-.08,6.475-.08l.06.04c7.105,0,12.68-.744,13.014,6.648.076,1.687.093,2.193.093,6.463,0,6.589.124,9.279-1.859,11.27Z" fill="#f1fcfc"/><circle cx="1.919" cy="1.919" r="1.919" transform="translate(22.622 5.541)" fill="#f1fcfc"/></g></g></svg>