<svg xmlns="http://www.w3.org/2000/svg" width="28" height="28.44" viewBox="0 0 28 28.44">
  <path id="_2" data-name="2" d="M28.159,12.184a2.037,2.037,0,0,0-1.262-.868,2.049,2.049,0,0,0-1.366-2.953,2.054,2.054,0,0,0-.106-2.087,2.035,2.035,0,0,0-1.262-.868,2.051,2.051,0,0,0-2.948-2.664L19.174,4.1a12.759,12.759,0,0,0-3.447-1.167,9.48,9.48,0,0,0-1.316-1.592L13.566.519a1.848,1.848,0,0,0-2.827,2.348l.065.1A12.865,12.865,0,1,0,25.467,19.946a.442.442,0,1,0-.832-.3,12,12,0,0,1-15.054,7.3l3.6-2.383h0l2.99-1.98h0a1.206,1.206,0,0,0,.34-1.671l-.039-.06.581-.385a1.97,1.97,0,0,1,1.4-.3,2.851,2.851,0,0,0,2.032-.439l4.818-3.19a12,12,0,0,1-.163,1.242.442.442,0,0,0,.354.516.432.432,0,0,0,.081.008.442.442,0,0,0,.434-.362,12.933,12.933,0,0,0,.211-2.011l1.358-.9a2.051,2.051,0,0,0,.578-2.843Zm-9.844-7.52-1.351.895L16.7,4.842a9.464,9.464,0,0,0-.379-.879,11.87,11.87,0,0,1,2,.7Zm-14,3.066a11.981,11.981,0,0,1,6.915-3.943A5.463,5.463,0,0,1,11.5,7.1l-1.078,4.658a1.2,1.2,0,0,0-1.543-.18L5.827,13.6h0l-4.4,2.917c-.024-.311-.037-.624-.037-.937A11.976,11.976,0,0,1,4.312,7.73ZM15.821,21.641a.32.32,0,0,1-.138.2h0l-2.626,1.739L8.182,16.315a.442.442,0,0,0-.734.493l4.871,7.265L8.57,26.556a12.017,12.017,0,0,1-7.032-9.075l4.41-2.911.508.757a.442.442,0,1,0,.735-.493l-.5-.752,2.684-1.772a.322.322,0,0,1,.446.091l5.959,9a.319.319,0,0,1,.047.241Zm11.772-8.092a1.159,1.159,0,0,1-.5.741l-1.552,1.028h0L20,18.987a1.969,1.969,0,0,1-1.4.3,2.853,2.853,0,0,0-2.032.439l-.581.385L11.1,12.745,12.364,7.3A6.354,6.354,0,0,0,11.9,3.125a.433.433,0,0,0-.019-.039,6.255,6.255,0,0,0-.4-.708.964.964,0,0,1,1.475-1.224l.845.819A8.64,8.64,0,0,1,15.869,5.15l.46,1.239,0,.007,0,.009c0,.008.006.015.01.02a.437.437,0,0,0,.03.055.442.442,0,0,0,.613.125L21.7,3.481a1.167,1.167,0,0,1,1.288,1.945l-.409.271h0l-.913.6,0,0-.014.011a.442.442,0,0,0,.506.724l.914-.605a1.167,1.167,0,0,1,1.288,1.946l-1.323.876a.442.442,0,1,0,.488.737l.2-.136.709-.469a1.167,1.167,0,0,1,1.288,1.946l-.661.438-.01.007-.652.432a.442.442,0,1,0,.488.738l.2-.136h0l.709-.469a1.166,1.166,0,0,1,1.787,1.2Zm0,0" transform="translate(-0.501 -0.001)" fill="#633a82"/>
</svg>
