<svg xmlns="http://www.w3.org/2000/svg" xmlns:xlink="http://www.w3.org/1999/xlink" width="31" height="31" viewBox="0 0 31 31"><defs><clipPath id="a"><rect width="31" height="31" transform="translate(35.5 1443.5)" fill="#f1fcfc"/></clipPath></defs><g transform="translate(-35.5 -1443.5)" clip-path="url(#a)"><path d="M11.25,32H6.125a1.554,1.554,0,0,1-1.552-1.552V18.889H1.583A1.554,1.554,0,0,1,.031,17.337V12.384a1.554,1.554,0,0,1,1.552-1.552h2.99V8.352A8.445,8.445,0,0,1,6.806,2.3,8.043,8.043,0,0,1,12.736,0l3.908.006a1.554,1.554,0,0,1,1.55,1.552v4.6a1.554,1.554,0,0,1-1.552,1.552H14.011c-.8,0-1.007.161-1.051.21-.072.082-.158.313-.158.951v1.959h3.642a1.578,1.578,0,0,1,.768.2,1.558,1.558,0,0,1,.8,1.358l0,4.953a1.554,1.554,0,0,1-1.552,1.552H12.8V30.448A1.554,1.554,0,0,1,11.25,32Zm-4.8-1.876h4.477V18.049a1.038,1.038,0,0,1,1.036-1.036h4.17l0-4.305H11.962a1.037,1.037,0,0,1-1.036-1.036v-2.8a3.2,3.2,0,0,1,.628-2.193,3.18,3.18,0,0,1,2.456-.845h2.308V1.882l-3.583-.006c-3.876,0-6.285,2.481-6.285,6.476v3.32a1.038,1.038,0,0,1-1.036,1.036H1.907v4.305H5.413a1.037,1.037,0,0,1,1.036,1.036ZM16.641,1.882h0Zm0,0" transform="translate(41.887 1443)" fill="#f1fcfc"/></g></svg>