<svg xmlns="http://www.w3.org/2000/svg" xmlns:xlink="http://www.w3.org/1999/xlink" width="36.5" height="71.508" viewBox="0 0 36.5 71.508">
  <defs>
    <linearGradient id="linear-gradient" x1="0.5" x2="0.5" y2="1" gradientUnits="objectBoundingBox">
      <stop offset="0" stop-color="#40e0d0"/>
      <stop offset="1" stop-color="#2bbde1"/>
    </linearGradient>
  </defs>
  <g id="Union_7" data-name="Union 7" transform="translate(-88 -114)" opacity="0.3" fill="url(#linear-gradient)">
    <path d="M88,159.408l9.856-9.654L88,140.1V114l36.5,35.753L88,185.508Zm0-1.907V142.14l7.5,7.681L88,157.5l0,0Z" stroke="none"/>
    <path d="M 89.00019836425781 183.1286163330078 L 123.0715484619141 149.7537231445313 L 89.00019836425781 116.3796615600586 L 89.00019836425781 139.6791229248047 L 98.55587005615234 149.0393371582031 L 99.28516387939453 149.7537078857422 L 98.55587005615234 150.4680938720703 L 89.00019836425781 159.8282775878906 L 89.00019836425781 183.1286163330078 M 89.00019836425781 155.0477294921875 L 94.10236358642578 149.8212432861328 L 89.00019836425781 144.5953979492188 L 89.00019836425781 155.0477294921875 M 88.00019836425781 185.5080108642578 L 88.00019836425781 159.4080047607422 L 97.85610961914063 149.7537078857422 L 88.00019836425781 140.0994110107422 L 88.00019836425781 114.0003128051758 L 124.5006103515625 149.7537078857422 L 88.00019836425781 185.5080108642578 Z M 88.00019836425781 157.5036010742188 L 88.00019836425781 157.5009002685547 L 88.00019836425781 142.1397094726563 L 95.49989318847656 149.8211975097656 L 88.00199890136719 157.5018005371094 L 88.00019836425781 157.5036010742188 Z" stroke="none" fill="rgba(112,112,112,0.37)"/>
  </g>
</svg>
