<svg id="whatsapp_2_" data-name="whatsapp (2)" xmlns="http://www.w3.org/2000/svg" width="40.067" height="40.067" viewBox="0 0 40.067 40.067">
  <g id="Group_71" data-name="Group 71">
    <path id="Path_53" data-name="Path 53" d="M20.038,0h-.01A20.021,20.021,0,0,0,3.814,31.775l-2.5,7.442,7.7-2.462A20.03,20.03,0,1,0,20.038,0ZM31.7,28.29c-.483,1.365-2.4,2.5-3.932,2.827-1.047.223-2.414.4-7.017-1.508-5.887-2.439-9.679-8.422-9.974-8.81s-2.379-3.168-2.379-6.043a6.4,6.4,0,0,1,2.048-4.876,2.911,2.911,0,0,1,2.048-.719c.248,0,.471.013.671.023.588.025.884.06,1.272.989.483,1.164,1.66,4.039,1.8,4.335a1.192,1.192,0,0,1,.085,1.084,3.462,3.462,0,0,1-.649.919c-.3.341-.576.6-.871.967-.27.318-.576.659-.235,1.247a17.782,17.782,0,0,0,3.25,4.039,14.728,14.728,0,0,0,4.7,2.9,1.267,1.267,0,0,0,1.412-.223,24.238,24.238,0,0,0,1.565-2.073,1.118,1.118,0,0,1,1.437-.436c.541.188,3.4,1.6,3.992,1.9s.977.436,1.119.684A4.989,4.989,0,0,1,31.7,28.29Z" fill="#633a82"/>
  </g>
</svg>
