<svg xmlns="http://www.w3.org/2000/svg" width="27.067" height="27.067" viewBox="0 0 27.067 27.067">
  <g id="whatsapp_2_" data-name="whatsapp (2)" transform="translate(0 0)">
    <g id="Group_71" data-name="Group 71">
      <path id="Path_53" data-name="Path 53" d="M13.537,0H13.53A13.525,13.525,0,0,0,2.576,21.466L.89,26.493l5.2-1.663A13.531,13.531,0,1,0,13.537,0Zm7.875,19.111a3.819,3.819,0,0,1-2.656,1.91c-.707.151-1.631.271-4.74-1.018-3.977-1.648-6.538-5.689-6.738-5.951A7.729,7.729,0,0,1,5.67,9.969,4.32,4.32,0,0,1,7.054,6.675,1.966,1.966,0,0,1,8.438,6.19c.167,0,.318.008.453.015.4.017.6.041.859.668.326.787,1.122,2.729,1.216,2.928a.806.806,0,0,1,.058.732,2.339,2.339,0,0,1-.438.621c-.2.23-.389.406-.589.653-.183.215-.389.445-.159.842a12.012,12.012,0,0,0,2.2,2.729,9.95,9.95,0,0,0,3.174,1.957.856.856,0,0,0,.954-.151,16.374,16.374,0,0,0,1.057-1.4.755.755,0,0,1,.971-.294c.365.127,2.3,1.083,2.7,1.281s.66.294.756.462A3.37,3.37,0,0,1,21.411,19.111Z" fill="#633a82"/>
    </g>
  </g>
</svg>
