<svg xmlns="http://www.w3.org/2000/svg" xmlns:xlink="http://www.w3.org/1999/xlink" width="31" height="31" viewBox="0 0 31 31"><defs><clipPath id="a"><rect width="31" height="31" transform="translate(167.5 1443.5)" fill="#f1fcfc"/></clipPath></defs><g transform="translate(-167.5 -1443.5)" clip-path="url(#a)"><g transform="translate(167 1446.881)"><path d="M20.925,10.687,13.856,6.819a1.3,1.3,0,0,0-1.922,1.139v7.67a1.3,1.3,0,0,0,1.914,1.144l7.07-3.8a1.3,1.3,0,0,0,.008-2.283Zm-7.116,3.976V8.931l5.284,2.891Zm0,0" fill="#f1fcfc"/><path d="M31.764,5.72V5.706a7.318,7.318,0,0,0-1.411-3.714A5.207,5.207,0,0,0,26.9.375L26.745.356,26.689.35C22.458.042,16.069,0,16.005,0h-.011C15.93,0,9.541.042,5.273.35L5.216.356l-.15.018A5.076,5.076,0,0,0,1.638,2.041a7.669,7.669,0,0,0-1.4,3.647l0,.033C.226,5.828,0,8.379,0,10.941v2.395c0,2.562.226,5.113.235,5.22l0,.016A7.246,7.246,0,0,0,1.642,22.24a5.314,5.314,0,0,0,3.564,1.594c.13.015.242.028.319.041l.074.01c2.443.232,10.1.347,10.426.352h.02c.064,0,6.453-.042,10.683-.35l.056-.006c.053-.007.114-.013.179-.02a4.959,4.959,0,0,0,3.4-1.626,7.668,7.668,0,0,0,1.4-3.647l0-.033c.01-.107.236-2.659.236-5.22V10.941c0-2.562-.226-5.113-.236-5.22Zm-1.64,7.615c0,2.371-.207,4.812-.227,5.037a5.954,5.954,0,0,1-.92,2.6A3.084,3.084,0,0,1,26.765,22l-.2.022c-4.092.3-10.239.341-10.523.343-.318,0-7.864-.12-10.232-.34-.121-.02-.252-.035-.391-.051a3.506,3.506,0,0,1-2.4-1L3,20.951a5.4,5.4,0,0,1-.9-2.572c-.015-.169-.227-2.64-.227-5.044V10.941c0-2.368.207-4.807.227-5.036a5.832,5.832,0,0,1,.92-2.6,3.236,3.236,0,0,1,2.26-1.07l.153-.018c4.151-.3,10.343-.342,10.565-.343s6.412.046,10.526.343l.165.02a3.358,3.358,0,0,1,2.3,1.04L29,3.286A5.489,5.489,0,0,1,29.9,5.9c.014.16.227,2.636.227,5.045Zm0,0" fill="#f1fcfc"/></g></g></svg>